<svg height="512" viewBox="0 0 64 64" width="512" xmlns="http://www.w3.org/2000/svg"><g id="Fill_Outline" data-name="Fill Outline"><path d="m3 3h54v52h-54z" fill="#c4f236"/><path d="m3 3h54v8h-54z" fill="#aae1f9"/><path d="m49 15h4v4h-4z" fill="#f8664f"/><path d="m21 5h34v4h-34z" fill="#57b7eb"/><path d="m10 25v-22h-7v52h54v-8h-25a22 22 0 0 1 -22-22z" fill="#a1d51c"/><path d="m3 3h16v8h-16z" fill="#f89c8d"/><path d="m3 3h7v8h-7z" fill="#f8664f"/><path d="m37.91 29.91h4v20h-4z" fill="#f9e109" transform="matrix(.707 -.707 .707 .707 -16.53 39.91)"/><path d="m43.44 44.27-.95-1a18.27 18.27 0 0 0 1.44-2.22l-9.68-9.68-2.83 2.83 14.14 14.19 2.83-2.83-1-1a3 3 0 0 1 -3.95-.29z" fill="#fcbc04"/><circle cx="29" cy="29" fill="#aae1f9" r="17"/><circle cx="29" cy="29" fill="#57b7eb" r="13"/><rect fill="#aae1f9" height="17" rx="2" transform="matrix(.707 -.707 .707 .707 -21.95 52.99)" width="8" x="48.99" y="44.49"/><path d="m60.32 54.66a6 6 0 0 1 -8.39-.07l-6.28-6.28-.09.08a2 2 0 0 0 0 2.83l9.2 9.19a2 2 0 0 0 2.83 0l2.82-2.82a2 2 0 0 0 0-2.83z" fill="#57b7eb"/><path d="m38.19 19.81a13 13 0 1 0 0 18.38l-17.53-17.53a13 13 0 0 1 18.05 17 13 13 0 0 0 -.52-17.85z" fill="#4891d3"/><path d="m7 31h20v24h-20z" fill="#f9e109"/><path d="m27 41.83v-10.83h-10.83a13 13 0 0 0 10.83 10.83z" fill="#fcbc04"/><path d="m11 43v-12h-4v24h20v-4h-8a8 8 0 0 1 -8-8z" fill="#fcbc04"/><path d="m41 17a17 17 0 1 0 0 24 17 17 0 0 0 0-24zm-2.81 21.19a13 13 0 1 1 0-18.38 13 13 0 0 1 0 18.38z" fill="#aae1f9"/><path d="m37.38 38.93a13 13 0 0 1 -20.07-15.59 19.39 19.39 0 0 1 -.31-3.34 19.16 19.16 0 0 1 .31-3.32c-.11.1-.23.19-.33.3a17 17 0 0 0 24.02 24.02 16.81 16.81 0 0 0 2.8-3.72 18.8 18.8 0 0 1 -6.42 1.65z" fill="#57b7eb"/><circle cx="28" cy="23" fill="#c4f236" r="4"/><path d="m25 27h6a3 3 0 0 1 3 3v5a0 0 0 0 1 0 0h-12a0 0 0 0 1 0 0v-5a3 3 0 0 1 3-3z" fill="#c4f236"/><path d="m30 25a4 4 0 0 1 -4-4 3.9 3.9 0 0 1 .36-1.64 4 4 0 1 0 5.28 5.28 3.9 3.9 0 0 1 -1.64.36z" fill="#a1d51c"/><path d="m25 27a3 3 0 0 0 -3 3v5h12v-2h-3a6 6 0 0 1 -6-6z" fill="#a1d51c"/><path d="m22 30v5h12v-1l-7-7h-2a3 3 0 0 0 -3 3z" fill="#a1d51c"/><path d="m34 34-1-1h-2a6 6 0 0 1 -6-6 3 3 0 0 0 -3 3v5h12z" fill="#7ab92d"/><path d="m24.21 24.21a4 4 0 0 0 2.58 2.58z" fill="#7ab92d"/><path d="m50 15h3a0 0 0 0 1 0 0v3a0 0 0 0 1 0 0h-1a2 2 0 0 1 -2-2v-1a0 0 0 0 1 0 0z" fill="#f89c8d"/><g fill="#39519d"><path d="m30 34a1 1 0 0 0 0 2h4a1 1 0 0 0 1-1v-5a4 4 0 0 0 -3.11-3.89 5 5 0 1 0 -7.78 0 4 4 0 0 0 -3.11 3.89v5a1 1 0 0 0 2 0v-5a2 2 0 0 1 2-2h6a2 2 0 0 1 2 2v4zm-2-14a3 3 0 1 1 -3 3 3 3 0 0 1 3-3z"/><circle cx="7" cy="7" r="1"/><circle cx="11" cy="7" r="1"/><circle cx="15" cy="7" r="1"/><path d="m23 6a1 1 0 0 0 0 2h14a1 1 0 0 0 0-2z"/><path d="m42 6a1 1 0 0 0 0 2h8a1 1 0 0 0 0-2z"/><path d="m12 46a1 1 0 0 0 0 2h10a1 1 0 0 0 0-2z"/><path d="m22 50h-10a1 1 0 0 0 0 2h10a1 1 0 0 0 0-2z"/><path d="m54 15a1 1 0 0 0 -1-1h-4a1 1 0 0 0 -1 1v4a1 1 0 0 0 1 1h4a1 1 0 0 0 1-1zm-2 3h-2v-2h2z"/><path d="m53 22h-4a1 1 0 0 0 0 2h4a1 1 0 0 0 0-2z"/><path d="m53 26h-2a1 1 0 0 0 0 2h2a1 1 0 0 0 0-2z"/><path d="m61.12 54.05-9.19-9.19a3 3 0 0 0 -3.41-.58l-4.86-4.86a17.93 17.93 0 0 0 -.43-21.42h1.77a1 1 0 0 0 0-2h-3.57a18 18 0 0 0 -6.53-4h18.1a1 1 0 0 0 0-2h-33v-6h36v42.34a1 1 0 0 0 2 0v-43.34a1 1 0 0 0 -1-1h-54a1 1 0 0 0 -1 1v21a1 1 0 0 0 2 0v-12h19.14a18 18 0 0 0 -5.28 2.87 1 1 0 0 0 -.16 1.41 1 1 0 0 0 1.4.16 16 16 0 0 1 20.63.71l-1.08 1.72a14 14 0 1 0 3.59 14.65 1 1 0 1 0 -1.9-.64 11.92 11.92 0 0 1 -11.34 8.12c-.34 0-.67 0-1 0v-4a1 1 0 0 0 -2 0v3.61a11.9 11.9 0 0 1 -8.61-8.61h.61a1 1 0 0 0 0-2h-.95c0-.33-.05-.66-.05-1a12 12 0 0 1 20.49-8.49l.08.1-2.42 3.86a1 1 0 0 0 .32 1.38 1 1 0 0 0 1.38-.32l2.06-3.29a12 12 0 0 1 2.08 7 1 1 0 0 0 1 1 1 1 0 0 0 1-1 13.94 13.94 0 0 0 -2.94-8.87l1.11-1.79a16 16 0 1 1 -24.72.48 1 1 0 0 0 -.16-1.4 1 1 0 0 0 -1.41.16 18 18 0 0 0 -3.87 12.18h-4a1 1 0 0 0 -1 1v23h-2v-26a1 1 0 0 0 -2 0v27a1 1 0 0 0 1 1h41.34a1 1 0 0 0 0-2h-16.34v-7h1a17.87 17.87 0 0 0 10.42-3.34l4.86 4.86a3 3 0 0 0 .58 3.41l9.19 9.19a3 3 0 0 0 4.24 0l2.83-2.83a3 3 0 0 0 0-4.24zm-57.12-44.05v-6h14v6zm22 44h-18v-22h3.27a18 18 0 0 0 2.15 6h-1.42a1 1 0 0 0 0 2h2.77a20.42 20.42 0 0 0 1.5 1.73l.3.27h-4.57a1 1 0 0 0 0 2h7a17.56 17.56 0 0 0 7 2.74zm15.73-12.27c.24-.24.45-.5.67-.74l4.6 4.58-1.43 1.43-4.57-4.6c.23-.22.49-.4.73-.67zm18 15.15-2.83 2.83a1 1 0 0 1 -1.42 0l-9.19-9.2a1 1 0 0 1 0-1.41l2.83-2.83a1 1 0 0 1 .71-.29 1 1 0 0 1 .7.29l9.2 9.2a1 1 0 0 1 .29.7 1 1 0 0 1 -.31.71z"/></g></g></svg>