<svg id="Capa_1" enable-background="new 0 0 497 497" height="512" viewBox="0 0 497 497" width="512" xmlns="http://www.w3.org/2000/svg"><path d="m102.329 450.179c12.745 8.046 28.98 8.046 41.725 0 12.745-8.046 28.98-8.046 41.725 0 12.745 8.046 28.98 8.046 41.725 0 12.745-8.046 28.98-8.046 41.725 0 12.745 8.046 28.98 8.046 41.725 0 12.745-8.046 28.98-8.046 41.725 0 12.745 8.046 28.98 8.046 41.725 0l.038-.024c13.849-8.743 21.657-24.471 20.274-40.791-2.621-30.926-13.003-72.295-50.804-115.052h-230.824c-37.866 42.831-48.219 84.304-50.817 115.212-1.364 16.23 6.337 31.881 20.058 40.655z" fill="#f86745"/><path d="m132.329 450.18c-13.721-8.774-21.423-24.425-20.058-40.655 2.598-30.908 12.951-72.381 50.817-115.212h-30c-37.866 42.832-48.219 84.304-50.817 115.212-1.364 16.229 6.338 31.88 20.058 40.654 10.861 6.857 24.252 7.848 35.862 3.018-2.012-.837-3.979-1.828-5.862-3.017z" fill="#c94d2f"/><circle cx="107.733" cy="220.57" fill="#423e4f" r="107.733"/><circle cx="389.267" cy="220.57" fill="#423e4f" r="107.733"/><path d="m156.728 40.786h-107.252c-21.986 0-39.81 17.823-39.81 39.81 0 21.986 17.823 39.81 39.81 39.81h107.252c21.986 0 39.81-17.823 39.81-39.81 0-21.986-17.824-39.81-39.81-39.81z" fill="#f86745"/><path d="m39.667 80.596c0-21.986 17.823-39.81 39.81-39.81h-30c-21.986 0-39.81 17.824-39.81 39.81 0 21.986 17.823 39.81 39.81 39.81h30c-21.987 0-39.81-17.823-39.81-39.81z" fill="#c94d2f"/><path d="m340.272 40.786h107.252c21.986 0 39.81 17.823 39.81 39.81 0 21.986-17.823 39.81-39.81 39.81h-107.252c-21.986 0-39.81-17.823-39.81-39.81 0-21.986 17.824-39.81 39.81-39.81z" fill="#f86745"/><path d="m330.462 80.596c0-21.986 17.823-39.81 39.81-39.81h-30c-21.986 0-39.81 17.824-39.81 39.81 0 21.986 17.823 39.81 39.81 39.81h30c-21.986 0-39.81-17.823-39.81-39.81z" fill="#c94d2f"/><circle cx="107.733" cy="220.57" fill="#a8e1f6" r="63.139"/><path d="m74.594 220.57c0-29.7 20.512-54.597 48.139-61.331-4.81-1.172-9.83-1.808-15-1.808-34.871 0-63.139 28.269-63.139 63.139 0 34.871 28.268 63.139 63.139 63.139 5.17 0 10.19-.636 15-1.808-27.627-6.734-48.139-31.631-48.139-61.331z" fill="#34b6e2"/><circle cx="389.267" cy="220.57" fill="#a8e1f6" r="63.139"/><path d="m356.128 220.57c0-29.7 20.512-54.597 48.139-61.331-4.81-1.172-9.83-1.808-15-1.808-34.871 0-63.139 28.269-63.139 63.139 0 34.871 28.268 63.139 63.139 63.139 5.17 0 10.19-.636 15-1.808-27.627-6.734-48.139-31.631-48.139-61.331z" fill="#34b6e2"/><path d="m342.165 275.451c0 51.73-41.935 85.745-93.665 85.745s-93.665-34.015-93.665-85.745 41.935-134.4 93.665-134.4 93.665 82.67 93.665 134.4z" fill="#ffddcf"/><path d="m184.835 275.451c0-46.624 34.067-118.369 78.665-132.082-4.885-1.502-9.894-2.319-15-2.319-51.73 0-93.665 82.67-93.665 134.4s41.935 85.745 93.665 85.745c5.106 0 10.115-.336 15-.984-44.598-5.908-78.665-38.136-78.665-84.76z" fill="#ffcbbe"/></svg>