<svg id="Capa_1" enable-background="new 0 0 497 497" height="512" viewBox="0 0 497 497" width="512" xmlns="http://www.w3.org/2000/svg"><path d="m92.774 134.877c-28.529 0-54.698 15.759-68.101 40.944-13.12 24.652-24.673 60.138-24.673 105.642s11.553 80.989 24.673 105.642c13.403 25.184 39.572 40.944 68.101 40.944h25.596v-293.172z" fill="#ffb25a"/><path d="m54.673 395.189c-13.12-26.539-24.673-64.74-24.673-113.726s11.553-87.188 24.673-113.726c6.712-13.578 16.627-24.61 28.437-32.242-24.673 3.115-46.565 18.018-58.437 40.326-13.12 24.652-24.673 60.138-24.673 105.642s11.553 80.99 24.673 105.642c11.872 22.308 33.764 37.211 58.437 40.327-11.81-7.633-21.725-18.665-28.437-32.243z" fill="#f88000"/><path d="m404.226 134.877c28.529 0 54.698 15.759 68.101 40.944 13.12 24.652 24.673 60.138 24.673 105.642s-11.553 80.989-24.673 105.642c-13.403 25.184-39.572 40.944-68.101 40.944h-25.596v-293.172z" fill="#ffb25a"/><path d="m286.185 37.423c-7.191-11.836-23.852-13.047-32.767-2.449-25.746 30.608-25.145 72.686-25.096 74.832l40.356-.84c-.004-.345-.188-29.284 15.646-48.01 5.612-6.636 6.374-16.106 1.861-23.533z" fill="#80e0b7"/><path d="m160.119 116.013c-20.476 0-39.326 11.231-48.979 29.288-14.663 27.429-32.436 73.583-32.436 136.161s17.773 108.731 32.436 136.161c9.653 18.058 28.504 29.288 48.979 29.288h45.208v-330.898z" fill="#f88000"/><path d="m336.881 116.013c20.476 0 39.326 11.231 48.979 29.288 14.663 27.429 32.436 73.583 32.436 136.161s-17.773 108.731-32.436 136.161c-9.653 18.058-28.504 29.288-48.979 29.288h-45.208v-330.898z" fill="#f88000"/><path d="m254.014 63.655h-11.028c-2.082 0-4.157.092-6.225.24-8.78 23.135-8.473 44.401-8.438 45.91l40.356-.84c-.004-.307-.14-23.24 10.977-41.484-8.271-2.513-16.917-3.826-25.642-3.826z" fill="#00b762"/><path d="m310.831 139.471c-5.7-26.76-29.455-45.816-56.816-45.816h-11.028c-27.361 0-51.116 19.056-56.816 45.816-8.208 38.531-13.005 93.065-13.005 141.991s4.797 103.46 13.005 141.991c5.7 26.76 29.455 45.816 56.816 45.816h11.028c27.361 0 51.116-19.056 56.816-45.816 8.208-38.531 13.005-93.065 13.005-141.991s-4.798-103.46-13.005-141.991z" fill="#ffb25a"/><g fill="#423e4f"><path d="m137.541 289.824c-4.142 0-7.5-3.358-7.5-7.5v-21.322c0-4.142 3.358-7.5 7.5-7.5s7.5 3.358 7.5 7.5v21.322c0 4.142-3.358 7.5-7.5 7.5z"/><path d="m359.46 289.824c-4.143 0-7.5-3.358-7.5-7.5v-21.322c0-4.142 3.357-7.5 7.5-7.5s7.5 3.358 7.5 7.5v21.322c0 4.142-3.358 7.5-7.5 7.5z"/><path d="m248.5 302.516c-13.379 0-26.102-5.795-34.908-15.9-2.721-3.123-2.396-7.86.727-10.582 3.123-2.721 7.86-2.396 10.582.727 5.956 6.834 14.558 10.754 23.599 10.754 9.042 0 17.644-3.92 23.6-10.754 2.721-3.123 7.458-3.448 10.582-.727s3.448 7.459.727 10.582c-8.807 10.105-21.53 15.9-34.909 15.9z"/></g></svg>